<svg width="16" height="16" viewBox="0 0 16 16" fill="none" xmlns="http://www.w3.org/2000/svg">
<path d="M5.33301 3.83325C5.05967 3.83325 4.83301 3.60659 4.83301 3.33325V1.33325C4.83301 1.05992 5.05967 0.833252 5.33301 0.833252C5.60634 0.833252 5.83301 1.05992 5.83301 1.33325V3.33325C5.83301 3.60659 5.60634 3.83325 5.33301 3.83325Z" fill="#575B66"/>
<path d="M10.667 3.83325C10.3937 3.83325 10.167 3.60659 10.167 3.33325V1.33325C10.167 1.05992 10.3937 0.833252 10.667 0.833252C10.9403 0.833252 11.167 1.05992 11.167 1.33325V3.33325C11.167 3.60659 10.9403 3.83325 10.667 3.83325Z" fill="#575B66"/>
<path d="M5.66667 9.66655C5.58 9.66655 5.49333 9.64656 5.41333 9.61323C5.32667 9.57989 5.26 9.53321 5.19333 9.47321C5.07333 9.34654 5 9.17988 5 8.99988C5 8.91322 5.02 8.82655 5.05333 8.74655C5.08667 8.66655 5.13333 8.59322 5.19333 8.52655C5.26 8.46655 5.32667 8.41987 5.41333 8.38654C5.65333 8.28654 5.95333 8.33989 6.14 8.52655C6.26 8.65322 6.33333 8.82655 6.33333 8.99988C6.33333 9.03988 6.32667 9.08656 6.32 9.13322C6.31333 9.17322 6.3 9.21322 6.28 9.25322C6.26667 9.29322 6.24667 9.33321 6.22 9.37321C6.2 9.40655 6.16667 9.43988 6.14 9.47321C6.01333 9.59321 5.84 9.66655 5.66667 9.66655Z" fill="#575B66"/>
<path d="M7.99967 9.66658C7.91301 9.66658 7.82634 9.64659 7.74634 9.61326C7.65967 9.57993 7.59301 9.53324 7.52634 9.47324C7.40634 9.34658 7.33301 9.17992 7.33301 8.99992C7.33301 8.91325 7.35301 8.82658 7.38634 8.74658C7.41968 8.66658 7.46634 8.59325 7.52634 8.52659C7.59301 8.46659 7.65967 8.41991 7.74634 8.38657C7.98634 8.27991 8.28634 8.33992 8.47301 8.52659C8.59301 8.65325 8.66634 8.82658 8.66634 8.99992C8.66634 9.03992 8.65967 9.08659 8.65301 9.13326C8.64634 9.17326 8.63301 9.21325 8.61301 9.25325C8.59967 9.29325 8.57968 9.33325 8.55301 9.37325C8.53301 9.40658 8.49967 9.43991 8.47301 9.47324C8.34634 9.59324 8.17301 9.66658 7.99967 9.66658Z" fill="#575B66"/>
<path d="M10.3337 9.66658C10.247 9.66658 10.1603 9.64659 10.0803 9.61326C9.99366 9.57993 9.92699 9.53324 9.86033 9.47324C9.83366 9.43991 9.80699 9.40658 9.78032 9.37325C9.75366 9.33325 9.73366 9.29325 9.72033 9.25325C9.70033 9.21325 9.68699 9.17326 9.68033 9.13326C9.67366 9.08659 9.66699 9.03992 9.66699 8.99992C9.66699 8.82658 9.74033 8.65325 9.86033 8.52659C9.92699 8.46659 9.99366 8.41991 10.0803 8.38657C10.327 8.27991 10.6203 8.33992 10.807 8.52659C10.927 8.65325 11.0003 8.82658 11.0003 8.99992C11.0003 9.03992 10.9937 9.08659 10.987 9.13326C10.9803 9.17326 10.967 9.21325 10.947 9.25325C10.9337 9.29325 10.9137 9.33325 10.887 9.37325C10.867 9.40658 10.8337 9.43991 10.807 9.47324C10.6803 9.59324 10.507 9.66658 10.3337 9.66658Z" fill="#575B66"/>
<path d="M5.66667 12C5.58 12 5.49333 11.9801 5.41333 11.9467C5.33333 11.9134 5.26 11.8667 5.19333 11.8067C5.07333 11.68 5 11.5067 5 11.3334C5 11.2467 5.02 11.16 5.05333 11.08C5.08667 10.9934 5.13333 10.92 5.19333 10.86C5.44 10.6134 5.89333 10.6134 6.14 10.86C6.26 10.9867 6.33333 11.16 6.33333 11.3334C6.33333 11.5067 6.26 11.68 6.14 11.8067C6.01333 11.9267 5.84 12 5.66667 12Z" fill="#575B66"/>
<path d="M7.99967 12C7.82634 12 7.65301 11.9267 7.52634 11.8067C7.40634 11.68 7.33301 11.5067 7.33301 11.3334C7.33301 11.2467 7.35301 11.16 7.38634 11.08C7.41968 10.9934 7.46634 10.92 7.52634 10.86C7.77301 10.6134 8.22634 10.6134 8.47301 10.86C8.53301 10.92 8.57967 10.9934 8.61301 11.08C8.64634 11.16 8.66634 11.2467 8.66634 11.3334C8.66634 11.5067 8.59301 11.68 8.47301 11.8067C8.34634 11.9267 8.17301 12 7.99967 12Z" fill="#575B66"/>
<path d="M10.3337 11.9999C10.1603 11.9999 9.98699 11.9266 9.86033 11.8066C9.80033 11.7466 9.75366 11.6733 9.72033 11.5866C9.68699 11.5066 9.66699 11.4199 9.66699 11.3333C9.66699 11.2466 9.68699 11.1599 9.72033 11.0799C9.75366 10.9933 9.80033 10.9199 9.86033 10.8599C10.0137 10.7066 10.247 10.6333 10.4603 10.6799C10.507 10.6866 10.547 10.6999 10.587 10.7199C10.627 10.7333 10.667 10.7533 10.707 10.78C10.7403 10.8 10.7737 10.8333 10.807 10.8599C10.927 10.9866 11.0003 11.1599 11.0003 11.3333C11.0003 11.5066 10.927 11.6799 10.807 11.8066C10.6803 11.9266 10.507 11.9999 10.3337 11.9999Z" fill="#575B66"/>
<path d="M13.6663 6.56006H2.33301C2.05967 6.56006 1.83301 6.33339 1.83301 6.06006C1.83301 5.78673 2.05967 5.56006 2.33301 5.56006H13.6663C13.9397 5.56006 14.1663 5.78673 14.1663 6.06006C14.1663 6.33339 13.9397 6.56006 13.6663 6.56006Z" fill="#575B66"/>
<path d="M10.6667 15.1666H5.33333C2.9 15.1666 1.5 13.7666 1.5 11.3333V5.66659C1.5 3.23325 2.9 1.83325 5.33333 1.83325H10.6667C13.1 1.83325 14.5 3.23325 14.5 5.66659V11.3333C14.5 13.7666 13.1 15.1666 10.6667 15.1666ZM5.33333 2.83325C3.42667 2.83325 2.5 3.75992 2.5 5.66659V11.3333C2.5 13.2399 3.42667 14.1666 5.33333 14.1666H10.6667C12.5733 14.1666 13.5 13.2399 13.5 11.3333V5.66659C13.5 3.75992 12.5733 2.83325 10.6667 2.83325H5.33333Z" fill="#575B66"/>
</svg>
