<svg width="16" height="16" viewBox="0 0 16 16" fill="none" xmlns="http://www.w3.org/2000/svg">
<path d="M7.99992 9.44655C6.57992 9.44655 5.41992 8.29321 5.41992 6.86655C5.41992 5.43988 6.57992 4.29321 7.99992 4.29321C9.41992 4.29321 10.5799 5.44655 10.5799 6.87321C10.5799 8.29988 9.41992 9.44655 7.99992 9.44655ZM7.99992 5.29321C7.13326 5.29321 6.41992 5.99988 6.41992 6.87321C6.41992 7.74655 7.12659 8.45321 7.99992 8.45321C8.87326 8.45321 9.57992 7.74655 9.57992 6.87321C9.57992 5.99988 8.86659 5.29321 7.99992 5.29321Z" fill="#575B66"/>
<path d="M8.00012 15.1733C7.01345 15.1733 6.02012 14.7999 5.24678 14.0599C3.28012 12.1666 1.10678 9.14659 1.92678 5.55325C2.66678 2.29325 5.51345 0.833252 8.00012 0.833252C8.00012 0.833252 8.00012 0.833252 8.00678 0.833252C10.4935 0.833252 13.3401 2.29325 14.0801 5.55992C14.8934 9.15325 12.7201 12.1666 10.7534 14.0599C9.98012 14.7999 8.98678 15.1733 8.00012 15.1733ZM8.00012 1.83325C6.06012 1.83325 3.56678 2.86659 2.90678 5.77325C2.18678 8.91325 4.16012 11.6199 5.94678 13.3333C7.10012 14.4466 8.90678 14.4466 10.0601 13.3333C11.8401 11.6199 13.8134 8.91325 13.1068 5.77325C12.4401 2.86659 9.94012 1.83325 8.00012 1.83325Z" fill="#575B66"/>
</svg>
