<svg width="40" height="40" viewBox="0 0 40 40" fill="none" xmlns="http://www.w3.org/2000/svg">
<rect x="0.5" y="0.5" width="39" height="39" rx="9.5" stroke="#B9C1D9"/>
<path d="M20.0199 28.53C17.6899 28.53 15.3599 28.16 13.1499 27.42C12.3099 27.13 11.6699 26.54 11.3899 25.77C11.0999 25 11.1999 24.15 11.6599 23.39L12.8099 21.48C13.0499 21.08 13.2699 20.28 13.2699 19.81V16.92C13.2699 13.2 16.2999 10.17 20.0199 10.17C23.7399 10.17 26.7699 13.2 26.7699 16.92V19.81C26.7699 20.27 26.9899 21.08 27.2299 21.49L28.3699 23.39C28.7999 24.11 28.8799 24.98 28.5899 25.77C28.2999 26.56 27.6699 27.16 26.8799 27.42C24.6799 28.16 22.3499 28.53 20.0199 28.53ZM20.0199 11.67C17.1299 11.67 14.7699 14.02 14.7699 16.92V19.81C14.7699 20.54 14.4699 21.62 14.0999 22.25L12.9499 24.16C12.7299 24.53 12.6699 24.92 12.7999 25.25C12.9199 25.59 13.2199 25.85 13.6299 25.99C17.8099 27.39 22.2399 27.39 26.4199 25.99C26.7799 25.87 27.0599 25.6 27.1899 25.24C27.3199 24.88 27.2899 24.49 27.0899 24.16L25.9399 22.25C25.5599 21.6 25.2699 20.53 25.2699 19.8V16.92C25.2699 14.02 22.9199 11.67 20.0199 11.67Z" fill="#B9C1D9"/>
<path d="M21.8796 11.9401C21.8096 11.9401 21.7396 11.9301 21.6696 11.9101C21.3796 11.8301 21.0996 11.7701 20.8296 11.7301C19.9796 11.6201 19.1596 11.6801 18.3896 11.9101C18.1096 12.0001 17.8096 11.9101 17.6196 11.7001C17.4296 11.4901 17.3696 11.1901 17.4796 10.9201C17.8896 9.87005 18.8896 9.18005 20.0296 9.18005C21.1696 9.18005 22.1696 9.86005 22.5796 10.9201C22.6796 11.1901 22.6296 11.4901 22.4396 11.7001C22.2896 11.8601 22.0796 11.9401 21.8796 11.9401Z" fill="#B9C1D9"/>
<path d="M20.0195 30.8101C19.0295 30.8101 18.0695 30.4101 17.3695 29.7101C16.6695 29.0101 16.2695 28.0501 16.2695 27.0601H17.7695C17.7695 27.6501 18.0095 28.2301 18.4295 28.6501C18.8495 29.0701 19.4295 29.3101 20.0195 29.3101C21.2595 29.3101 22.2695 28.3001 22.2695 27.0601H23.7695C23.7695 29.1301 22.0895 30.8101 20.0195 30.8101Z" fill="#B9C1D9"/>
</svg>
